<?xml version="1.0" encoding="UTF-8" standalone="yes"?>
<svg version="1.1" id="Layer_1" xmlns:x="&amp;ns_extend;" xmlns:i="&amp;ns_ai;" xmlns:graph="&amp;ns_graphs;" xmlns="http://www.w3.org/2000/svg" xmlns:xlink="http://www.w3.org/1999/xlink" x="0px" y="0px" viewBox="0 0 315 272.8" style="enable-background:new 0 0 315 272.8;" xml:space="preserve">
      <style type="text/css">.st0{fill:#4FB50D;}</style>
    <metadata>
              <sfw>
                      <slices/>
            <sliceSourceBounds bottomLeftOrigin="true" height="272.8" width="315" x="407.35" y="-271.2"/>
                  </sfw>
          </metadata>
    <g id="color_index_0" fill="#4fb50d">
              <path d="M232.44,7.47l22.23,38.5l-54.39,94.21l-87.04-0.01L60.09,48.12L83.56,7.47H232.44 M271.09,75.3l35.28,61.11&#x9;&#x9;L245.35,242.1l-21.5-84.98L271.09,75.3 M43.15,76.59l46.21,80.04l-20.11,84.8L8.62,136.41L43.15,76.59 M115.78,168.64l81.63,0.01&#x9;&#x9;l24.47,96.69H92.85L115.78,168.64 M236.75,0H79.25L51.47,48.12l57.46,99.52l95.66,0.01l58.7-101.68L236.75,0L236.75,0z&#x9;&#x9; M271.09,60.36l-55.23,95.65l26.76,105.74L315,136.41L271.09,60.36L271.09,60.36z M43.15,61.66L0,136.41l72.19,125.04l25.13-105.98&#x9;&#x9;L43.15,61.66L43.15,61.66z M109.87,161.17L83.4,272.8h148.06l-28.24-111.62L109.87,161.17L109.87,161.17z"/>
          </g>
  </svg>