<?xml version="1.0" encoding="UTF-8" standalone="yes"?>
<svg version="1.1" id="Layer_1" xmlns:x="&amp;ns_extend;" xmlns:i="&amp;ns_ai;" xmlns:graph="&amp;ns_graphs;" xmlns="http://www.w3.org/2000/svg" xmlns:xlink="http://www.w3.org/1999/xlink" x="0px" y="0px" viewBox="0 0 315 272.7999878" style="enable-background:new 0 0 315 272.7999878;" xml:space="preserve">
      <style type="text/css">.st0{fill:url(#SVGID_1_);}</style>
    <metadata>
              <sfw>
                      <slices/>
            <sliceSourceBounds bottomLeftOrigin="true" height="272.7999878" width="315" x="0" y="0.000001"/>
                  </sfw>
          </metadata>
    <g id="color_index_g">
              <linearGradient id="SVGID_1_" gradientUnits="userSpaceOnUse" x1="-4.4874239" y1="301.6023865" x2="420.0088806" y2="-123.3168488" gradientTransform="matrix(1 0 0 -1 0 273.276001)">
                      <stop offset="0.1629" style="stop-color:#8aff3e"/>
            <stop offset="0.531" style="stop-color:#53ba11"/>
                  </linearGradient>
        <path class="st0" d="M215.8699951,156.0200043l55.230011-95.6500015L315,136.3999939L242.6300049,261.75L215.8699951,156.0200043z&#x9;&#x9; M97.3199997,155.4600067L43.1500015,61.6599998L0,136.3999939l72.1900024,125.0400085L97.3199997,155.4600067z&#x9;&#x9; M204.5899963,147.6499939l58.7000122-101.6800003L236.75-0.000001H79.25L51.4700012,48.1199989l57.4599991,99.5200043&#x9;&#x9;L204.5899963,147.6499939z M109.8700027,161.1699982L83.4000015,272.7999878h148.0599976L203.219986,161.1799927&#x9;&#x9;L109.8700027,161.1699982z"/>
          </g>
  </svg>